<svg width="166" height="46" viewBox="0 0 166 46" fill="none" xmlns="http://www.w3.org/2000/svg">
<path d="M19.2793 20.8023V34.8742C19.2793 36.0702 19.0356 37.2101 18.548 38.294C18.098 39.3405 17.4792 40.2562 16.6917 41.0411C15.9042 41.826 14.9666 42.4427 13.8791 42.8912C12.829 43.3771 11.704 43.62 10.5039 43.62C9.30384 43.62 8.17878 43.3958 7.12873 42.9473C6.07868 42.4988 5.15989 41.9008 4.37235 41.1533C3.58481 40.3684 2.94728 39.4714 2.45976 38.4622C2.00974 37.4157 1.76597 36.2944 1.72847 35.0984V24.7267C1.61597 23.5681 1.09094 22.7271 0.153397 22.2039C0.678422 21.9422 1.20345 21.8114 1.72847 21.8114V8.58048C1.76597 7.38446 2.00974 6.2632 2.45976 5.21668C2.94728 4.17017 3.58481 3.27315 4.37235 2.52564C5.15989 1.74076 6.07868 1.12406 7.12873 0.675553C8.17878 0.227046 9.30384 0.00279236 10.5039 0.00279236C11.704 0.00279236 12.829 0.245734 13.8791 0.731616C14.9666 1.18012 15.9042 1.79682 16.6917 2.5817C17.4792 3.36659 18.098 4.30098 18.548 5.38487C19.0356 6.43139 19.2793 7.57134 19.2793 8.80473C19.2793 9.44011 19.3356 9.90731 19.4481 10.2063C19.5981 10.5053 19.7481 10.7483 19.8981 10.9351C20.0481 11.122 20.1794 11.2902 20.2919 11.4397C20.4419 11.5892 20.5169 11.8321 20.5169 12.1685H17.5917C16.9917 12.0938 16.6917 11.7761 16.6917 11.2155C16.6917 11.7761 16.3917 12.0938 15.7916 12.1685H12.8103C12.8103 11.8321 12.8665 11.5892 12.979 11.4397C13.129 11.2902 13.279 11.122 13.429 10.9351C13.579 10.7483 13.7103 10.5053 13.8228 10.2063C13.9728 9.90731 14.0478 9.42143 14.0478 8.74867V8.69261C14.0478 8.20672 14.0291 7.6274 13.9916 6.95464C13.9541 6.24451 13.8228 5.57175 13.5978 4.93636C13.3728 4.30098 13.0165 3.75904 12.529 3.31053C12.0415 2.86202 11.3664 2.63777 10.5039 2.63777C9.60385 2.63777 8.91007 2.88071 8.42254 3.36659C7.97252 3.8151 7.63501 4.35704 7.41 4.99243C7.18498 5.62781 7.05373 6.30057 7.01623 7.01071C6.97872 7.72084 6.95997 8.31885 6.95997 8.80473V21.8114C7.485 21.8114 8.01002 21.9422 8.53505 22.2039C7.5975 22.7271 7.07248 23.5681 6.95997 24.7267V34.8742C6.95997 35.3601 6.97872 35.9581 7.01623 36.6682C7.05373 37.341 7.18498 38.0137 7.41 38.6865C7.63501 39.3219 7.97252 39.8638 8.42254 40.3123C8.91007 40.7608 9.60385 40.9851 10.5039 40.9851C11.4039 40.9851 12.079 40.7608 12.529 40.3123C13.0165 39.8638 13.3728 39.3219 13.5978 38.6865C13.8228 38.0137 13.9541 37.341 13.9916 36.6682C14.0291 35.9581 14.0478 35.3601 14.0478 34.8742V23.3812C13.6353 23.4186 13.279 23.5868 12.979 23.8858C12.7165 24.1848 12.5852 24.5398 12.5852 24.951V25.007C12.5477 25.5677 12.3977 26.0535 12.1352 26.4647C11.9102 26.8384 11.5727 27.1748 11.1227 27.4738C10.6727 27.7354 10.0164 27.8663 9.15383 27.8663V20.8023H19.2793ZM4.76612 19.1764C4.76612 18.9522 4.74737 18.7279 4.70987 18.5037C4.70987 18.2794 4.70987 18.0739 4.70987 17.887V16.5975C4.67236 15.7753 4.65361 14.9904 4.65361 14.2429C4.65361 13.4954 4.63486 12.7852 4.59736 12.1125C4.55986 11.7761 4.54111 11.4771 4.54111 11.2155C4.54111 10.9164 4.52236 10.6174 4.48485 10.3184C4.48485 10.0568 4.4661 9.81387 4.4286 9.58962C4.4286 9.32799 4.4286 9.10374 4.4286 8.91686C4.4286 8.72998 4.40985 8.56179 4.37235 8.41229C4.37235 8.26279 4.37235 8.13197 4.37235 8.01984V7.73953C4.33485 7.73953 4.3161 7.75822 4.3161 7.79559V8.01984C4.3161 8.13197 4.29735 8.26279 4.25984 8.41229C4.25984 8.56179 4.25984 8.72998 4.25984 8.91686C4.25984 9.10374 4.24109 9.32799 4.20359 9.58962C4.20359 9.81387 4.20359 10.0568 4.20359 10.3184C4.16609 10.6174 4.14734 10.9164 4.14734 11.2155C4.14734 11.4771 4.12859 11.7761 4.09109 12.1125C4.05358 12.7852 4.03483 13.4954 4.03483 14.2429C4.03483 14.9904 4.01608 15.7753 3.97858 16.5975V17.887C3.97858 18.0739 3.95983 18.2794 3.92233 18.5037C3.92233 18.7279 3.92233 18.9522 3.92233 19.1764V24.3903C3.92233 24.5025 3.92233 24.6146 3.92233 24.7267C3.95983 24.8388 3.97858 24.9323 3.97858 25.007V26.9132C3.97858 27.3243 3.97858 27.7354 3.97858 28.1466C4.01608 28.5203 4.03483 28.8941 4.03483 29.2678C4.03483 29.679 4.03483 30.0714 4.03483 30.4452C4.07233 30.7815 4.09109 31.0992 4.09109 31.3982C4.12859 31.7346 4.14734 32.0523 4.14734 32.3513C4.14734 32.6503 4.16609 32.9306 4.20359 33.1923C4.20359 33.4913 4.20359 33.7529 4.20359 33.9772C4.24109 34.2014 4.25984 34.407 4.25984 34.5938C4.25984 34.7807 4.25984 34.9489 4.25984 35.0984C4.29735 35.2479 4.3161 35.3787 4.3161 35.4909V35.7712C4.3161 35.8086 4.33485 35.8272 4.37235 35.8272V35.4909C4.37235 35.3787 4.37235 35.2479 4.37235 35.0984C4.40985 34.9489 4.4286 34.7807 4.4286 34.5938C4.4286 34.407 4.4286 34.2014 4.4286 33.9772C4.4661 33.7529 4.48485 33.4913 4.48485 33.1923C4.52236 32.9306 4.54111 32.6503 4.54111 32.3513C4.54111 32.0523 4.55986 31.7346 4.59736 31.3982C4.59736 31.0992 4.59736 30.7815 4.59736 30.4452C4.63486 30.0714 4.65361 29.679 4.65361 29.2678C4.65361 28.8941 4.65361 28.5203 4.65361 28.1466C4.69111 27.7354 4.70987 27.3243 4.70987 26.9132V25.6798C4.70987 25.3808 4.72862 25.1565 4.76612 25.007V19.1764ZM17.0292 27.3056C16.9917 26.9319 16.973 26.5955 16.973 26.2965C16.973 25.9601 16.9542 25.6424 16.9167 25.3434C16.8792 24.7828 16.8229 24.3156 16.7479 23.9418C16.7479 23.8671 16.7292 23.7923 16.6917 23.7176C16.6917 23.6428 16.6917 23.5868 16.6917 23.5494V23.3812L16.6354 23.4373V23.5494C16.6354 23.5868 16.6167 23.6428 16.5792 23.7176C16.5792 23.7923 16.5792 23.8671 16.5792 23.9418C16.5042 24.3156 16.4479 24.7828 16.4104 25.3434C16.3729 25.6424 16.3542 25.9601 16.3542 26.2965C16.3542 26.5955 16.3354 26.9319 16.2979 27.3056V27.8663C16.2979 27.9784 16.2792 28.0905 16.2417 28.2026C16.2417 28.2774 16.2417 28.3521 16.2417 28.4269V30.7815C16.2417 30.8937 16.2604 30.9871 16.2979 31.0619V31.9028C16.2979 32.0897 16.2979 32.2579 16.2979 32.4074C16.3354 32.5569 16.3542 32.7251 16.3542 32.9119C16.3542 33.0988 16.3542 33.267 16.3542 33.4165C16.3917 33.566 16.4104 33.7155 16.4104 33.865C16.4479 34.0145 16.4667 34.164 16.4667 34.3135C16.4667 34.4257 16.4854 34.5378 16.5229 34.6499C16.5229 34.762 16.5229 34.8742 16.5229 34.9863C16.5604 35.0984 16.5792 35.1919 16.5792 35.2666C16.5792 35.3414 16.5792 35.4161 16.5792 35.4909C16.6167 35.5656 16.6354 35.6217 16.6354 35.659V35.7712C16.6354 35.8086 16.6542 35.8272 16.6917 35.8272V35.659C16.6917 35.6217 16.6917 35.5656 16.6917 35.4909C16.7292 35.4161 16.7479 35.3414 16.7479 35.2666C16.7479 35.1919 16.7479 35.0984 16.7479 34.9863C16.7854 34.8742 16.8042 34.762 16.8042 34.6499C16.8417 34.5378 16.8604 34.4257 16.8604 34.3135C16.8604 34.164 16.8792 34.0145 16.9167 33.865C16.9167 33.7155 16.9167 33.566 16.9167 33.4165C16.9542 33.267 16.973 33.0988 16.973 32.9119C16.973 32.7251 16.973 32.5569 16.973 32.4074C17.0105 32.2579 17.0292 32.0897 17.0292 31.9028V31.3422C17.0292 31.1927 17.048 31.0992 17.0855 31.0619V28.4269C17.0855 28.3521 17.0667 28.2774 17.0292 28.2026C17.0292 28.0905 17.0292 27.9784 17.0292 27.8663V27.3056Z" fill="#F4EDE8"/>
<path d="M39.7149 21.8675C40.3524 21.8675 40.8774 21.9983 41.2899 22.2599C40.8774 22.5216 40.5212 22.8766 40.2211 23.3251C39.9586 23.7736 39.7899 24.2595 39.7149 24.7828V33.2483C39.6774 34.4444 39.4148 35.5656 38.9273 36.6121C38.4773 37.6213 37.8585 38.5183 37.071 39.3032C36.2835 40.0507 35.3647 40.6487 34.3146 41.0972C33.2646 41.5457 32.1395 41.77 30.9394 41.77C29.7394 41.77 28.6143 41.5457 27.5643 41.0972C26.5142 40.6487 25.5954 40.0507 24.8079 39.3032C24.0204 38.5183 23.3828 37.6213 22.8953 36.6121C22.4453 35.5656 22.2015 34.4444 22.164 33.2483V24.7828C22.0515 23.6241 21.5265 22.7832 20.5889 22.2599C21.0015 21.9983 21.5265 21.8675 22.164 21.8675V11.0473C22.2015 9.88862 22.4453 8.78604 22.8953 7.73953C23.3828 6.69301 24.0204 5.796 24.8079 5.04849C25.5954 4.2636 26.5142 3.64691 27.5643 3.1984C28.6143 2.7499 29.7394 2.52564 30.9394 2.52564C32.1395 2.52564 33.2646 2.7499 34.3146 3.1984C35.3647 3.64691 36.2835 4.2636 37.071 5.04849C37.8585 5.796 38.4773 6.69301 38.9273 7.73953C39.4148 8.78604 39.6774 9.88862 39.7149 11.0473V21.8675ZM25.2017 19.8492C25.2017 19.6623 25.1829 19.4941 25.1454 19.3446C25.1454 19.1578 25.1454 18.9709 25.1454 18.784V17.7188C25.1079 17.0087 25.0892 16.3359 25.0892 15.7005C25.0892 15.0651 25.0704 14.4671 25.0329 13.9065C24.9954 13.6449 24.9767 13.3832 24.9767 13.1216C24.9767 12.86 24.9579 12.617 24.9204 12.3928C24.9204 12.1685 24.9017 11.963 24.8642 11.7761C24.8642 11.5892 24.8642 11.421 24.8642 11.2715C24.8642 11.0846 24.8454 10.9351 24.8079 10.823C24.8079 10.6735 24.8079 10.5614 24.8079 10.4866V10.2063C24.7704 10.2063 24.7516 10.225 24.7516 10.2624V10.4866C24.7516 10.5614 24.7329 10.6735 24.6954 10.823C24.6954 10.9351 24.6954 11.0846 24.6954 11.2715C24.6954 11.421 24.6766 11.5892 24.6391 11.7761C24.6391 11.963 24.6391 12.1685 24.6391 12.3928C24.6016 12.617 24.5829 12.86 24.5829 13.1216C24.5829 13.3832 24.5641 13.6449 24.5266 13.9065C24.4891 14.4671 24.4704 15.0651 24.4704 15.7005C24.4704 16.3359 24.4516 17.0087 24.4141 17.7188V18.784C24.4141 18.9709 24.3954 19.1578 24.3579 19.3446C24.3579 19.4941 24.3579 19.6623 24.3579 19.8492V24.2782C24.3579 24.5398 24.3766 24.7267 24.4141 24.8388V26.4647C24.4141 26.8011 24.4141 27.1374 24.4141 27.4738C24.4516 27.8102 24.4704 28.1279 24.4704 28.4269C24.4704 28.7633 24.4704 29.081 24.4704 29.38C24.5079 29.6416 24.5266 29.9219 24.5266 30.2209C24.5641 30.5199 24.5829 30.8002 24.5829 31.0619C24.5829 31.2861 24.6016 31.5104 24.6391 31.7346C24.6391 31.9589 24.6391 32.1644 24.6391 32.3513C24.6766 32.5382 24.6954 32.7251 24.6954 32.9119C24.6954 33.0988 24.6954 33.267 24.6954 33.4165C24.7329 33.5286 24.7516 33.6221 24.7516 33.6968V33.865C24.7516 33.9024 24.7704 33.9211 24.8079 33.9211V33.6968C24.8079 33.6221 24.8079 33.5286 24.8079 33.4165C24.8454 33.267 24.8642 33.0988 24.8642 32.9119C24.8642 32.7251 24.8642 32.5382 24.8642 32.3513C24.9017 32.1644 24.9204 31.9589 24.9204 31.7346C24.9579 31.5104 24.9767 31.2861 24.9767 31.0619C24.9767 30.8002 24.9954 30.5199 25.0329 30.2209C25.0329 29.9219 25.0329 29.6416 25.0329 29.38C25.0704 29.081 25.0892 28.7633 25.0892 28.4269C25.0892 28.1279 25.0892 27.8102 25.0892 27.4738C25.1267 27.1374 25.1454 26.8011 25.1454 26.4647V24.8388C25.1829 24.7267 25.2017 24.5398 25.2017 24.2782V19.8492ZM34.4834 11.2715C34.4834 10.7856 34.4646 10.1876 34.4271 9.47749C34.3896 8.76736 34.2584 8.0946 34.0333 7.45921C33.8083 6.82383 33.4521 6.28188 32.9645 5.83338C32.5145 5.3475 31.8395 5.10455 30.9394 5.10455C30.0394 5.10455 29.3456 5.3475 28.8581 5.83338C28.4081 6.28188 28.0706 6.82383 27.8455 7.45921C27.6205 8.0946 27.4893 8.76736 27.4518 9.47749C27.4143 10.1876 27.3955 10.7856 27.3955 11.2715V21.8675C28.0331 21.8675 28.5581 21.9983 28.9706 22.2599C28.0331 22.7832 27.508 23.6241 27.3955 24.7828V33.0241C27.3955 33.51 27.4143 34.108 27.4518 34.8181C27.4893 35.4909 27.6205 36.1636 27.8455 36.8364C28.0706 37.4718 28.4081 38.0137 28.8581 38.4622C29.3456 38.9107 30.0394 39.135 30.9394 39.135C31.8395 39.135 32.5145 38.9107 32.9645 38.4622C33.4521 38.0137 33.8083 37.4718 34.0333 36.8364C34.2584 36.1636 34.3896 35.4909 34.4271 34.8181C34.4646 34.108 34.4834 33.51 34.4834 33.0241V24.7828C34.4084 23.6615 33.8833 22.8206 32.9083 22.2599C33.3208 21.9983 33.8458 21.8675 34.4834 21.8675V11.2715ZM37.521 19.8492C37.521 19.6623 37.521 19.4941 37.521 19.3446C37.521 19.1578 37.5023 18.9709 37.4648 18.784V17.7188C37.4648 17.0087 37.446 16.3359 37.4085 15.7005C37.4085 15.0651 37.3898 14.4671 37.3522 13.9065C37.3147 13.6449 37.296 13.3832 37.296 13.1216C37.296 12.86 37.2772 12.617 37.2397 12.3928C37.2397 12.1685 37.221 11.963 37.1835 11.7761C37.1835 11.5892 37.1835 11.421 37.1835 11.2715C37.1835 11.0846 37.1647 10.9351 37.1272 10.823C37.1272 10.6735 37.1272 10.5614 37.1272 10.4866V10.2063C37.0897 10.2063 37.071 10.225 37.071 10.2624V10.4866C37.071 10.5614 37.071 10.6735 37.071 10.823C37.071 10.9351 37.0522 11.0846 37.0147 11.2715C37.0147 11.421 36.996 11.5892 36.9585 11.7761C36.9585 11.963 36.9585 12.1685 36.9585 12.3928C36.921 12.617 36.9022 12.86 36.9022 13.1216C36.9022 13.3832 36.8835 13.6449 36.846 13.9065C36.8085 14.4671 36.7897 15.0651 36.7897 15.7005C36.7897 16.3359 36.771 17.0087 36.7335 17.7188V19.8492C36.696 20.223 36.6772 20.5967 36.6772 20.9705C36.6772 21.3442 36.6772 21.718 36.6772 22.0917C36.6772 22.4655 36.6772 22.8392 36.6772 23.213C36.6772 23.5494 36.696 23.9044 36.7335 24.2782V26.4647C36.7335 26.8011 36.7335 27.1374 36.7335 27.4738C36.771 27.8102 36.7897 28.1279 36.7897 28.4269C36.7897 28.7633 36.7897 29.081 36.7897 29.38C36.8272 29.6416 36.846 29.9219 36.846 30.2209C36.8835 30.5199 36.9022 30.8002 36.9022 31.0619C36.9022 31.2861 36.921 31.5104 36.9585 31.7346C36.9585 31.9589 36.9585 32.1644 36.9585 32.3513C36.996 32.5382 37.0147 32.7251 37.0147 32.9119C37.0522 33.0988 37.071 33.267 37.071 33.4165C37.071 33.5286 37.071 33.6221 37.071 33.6968V33.865C37.071 33.9024 37.0897 33.9211 37.1272 33.9211V33.6968C37.1272 33.6221 37.1272 33.5286 37.1272 33.4165C37.1647 33.267 37.1835 33.0988 37.1835 32.9119C37.1835 32.7251 37.1835 32.5382 37.1835 32.3513C37.221 32.1644 37.2397 31.9589 37.2397 31.7346C37.2772 31.5104 37.296 31.2861 37.296 31.0619C37.296 30.8002 37.3147 30.5199 37.3522 30.2209C37.3522 29.9219 37.3522 29.6416 37.3522 29.38C37.3898 29.081 37.4085 28.7633 37.4085 28.4269C37.4085 28.1279 37.4085 27.8102 37.4085 27.4738C37.446 27.1374 37.4648 26.8011 37.4648 26.4647V25.3995C37.4648 25.3247 37.4648 25.2313 37.4648 25.1192C37.5023 25.007 37.521 24.9136 37.521 24.8388V19.8492Z" fill="#F4EDE8"/>
<path d="M60.5899 14.6353C60.5899 16.3172 60.1774 17.8309 59.3523 19.1764C58.5273 20.522 57.421 21.5685 56.0334 22.316C56.7085 22.8392 57.3272 23.4559 57.8898 24.1661C58.4523 24.8388 58.9211 25.5863 59.2961 26.4086C59.7086 27.2309 60.0274 28.0718 60.2524 28.9315C60.4774 29.7911 60.5899 30.632 60.5899 31.4543V35.0424C60.5524 36.2384 60.3086 37.3596 59.8586 38.4062C59.4086 39.4153 58.7898 40.3123 58.0023 41.0972C57.2147 41.8447 56.2959 42.4427 55.2459 42.8912C54.1958 43.3771 53.0708 43.62 51.8707 43.62H46.583C46.3205 43.62 46.0954 43.5266 45.9079 43.3397C45.7579 43.1528 45.6829 42.9286 45.6829 42.667C45.6829 42.9286 45.5892 43.1528 45.4017 43.3397C45.2141 43.5266 45.0079 43.62 44.7829 43.62H41.8015C41.8015 43.2837 41.8577 43.0407 41.9702 42.8912C42.1203 42.7417 42.2703 42.5735 42.4203 42.3867C42.5703 42.2371 42.7015 42.0129 42.814 41.7139C42.964 41.4149 43.039 40.9477 43.039 40.3123V24.6706C42.9265 23.5494 42.4015 22.7271 41.464 22.2039C41.9515 21.9049 42.4765 21.7554 43.039 21.7554V3.31053C43.039 2.67515 42.964 2.20795 42.814 1.90895C42.7015 1.60994 42.5703 1.38569 42.4203 1.23619C42.2703 1.04931 42.1203 0.881118 41.9702 0.731616C41.8577 0.582113 41.8015 0.339172 41.8015 0.00279236H44.7829C45.0079 0.00279236 45.2141 0.0962311 45.4017 0.283109C45.5892 0.432611 45.6829 0.638177 45.6829 0.899807C45.6829 0.301797 45.9829 0.00279236 46.583 0.00279236H51.8707C53.0708 0.00279236 54.1958 0.227046 55.2459 0.675553C56.2959 1.12406 57.2147 1.74076 58.0023 2.52564C58.7898 3.27315 59.4086 4.17017 59.8586 5.21668C60.3086 6.2632 60.5524 7.36577 60.5899 8.52442V14.6353ZM46.0767 18.784C46.0767 18.5224 46.0579 18.2794 46.0204 18.0552C46.0204 17.7935 46.0204 17.5506 46.0204 17.3264V15.8687C45.9829 14.8969 45.9642 13.9812 45.9642 13.1216C45.9642 12.262 45.9454 11.4584 45.9079 10.7109C45.8704 10.2998 45.8517 9.926 45.8517 9.58962C45.8517 9.25324 45.8329 8.93555 45.7954 8.63654C45.7954 8.33754 45.7767 8.05722 45.7392 7.79559C45.7392 7.49659 45.7392 7.25365 45.7392 7.06677C45.7392 6.84252 45.7204 6.63695 45.6829 6.45007C45.6829 6.2632 45.6829 6.11369 45.6829 6.00157V5.66519C45.6454 5.70256 45.6267 5.73994 45.6267 5.77731V6.00157C45.6267 6.11369 45.6079 6.2632 45.5704 6.45007C45.5704 6.63695 45.5704 6.84252 45.5704 7.06677C45.5704 7.25365 45.5517 7.49659 45.5142 7.79559C45.5142 8.05722 45.5142 8.33754 45.5142 8.63654C45.4767 8.93555 45.4579 9.25324 45.4579 9.58962C45.4579 9.926 45.4392 10.2998 45.4017 10.7109C45.3642 11.4584 45.3454 12.262 45.3454 13.1216C45.3454 13.9812 45.3267 14.8969 45.2892 15.8687V17.3264C45.2892 17.5506 45.2892 17.7935 45.2892 18.0552C45.2892 18.2794 45.2704 18.5224 45.2329 18.784V24.7828C45.2329 24.9323 45.2329 25.0631 45.2329 25.1752C45.2704 25.2873 45.2892 25.4182 45.2892 25.5677V27.6981C45.2892 28.1839 45.2892 28.6698 45.2892 29.1557C45.3267 29.6042 45.3454 30.034 45.3454 30.4452C45.3454 30.8563 45.3454 31.2674 45.3454 31.6786C45.3829 32.0897 45.4017 32.5008 45.4017 32.9119C45.4392 33.0988 45.4579 33.2857 45.4579 33.4726C45.4579 33.6221 45.4579 33.7903 45.4579 33.9772C45.4579 34.164 45.4579 34.3322 45.4579 34.4817C45.4954 34.6312 45.5142 34.7807 45.5142 34.9302C45.5142 35.2292 45.5142 35.5282 45.5142 35.8272C45.5517 36.0889 45.5704 36.3318 45.5704 36.5561C45.5704 36.7803 45.5704 36.9859 45.5704 37.1728C45.6079 37.3223 45.6267 37.4531 45.6267 37.5652V37.8455C45.6267 37.8829 45.6454 37.9203 45.6829 37.9576V37.5652C45.6829 37.4531 45.6829 37.3223 45.6829 37.1728C45.7204 36.9859 45.7392 36.7803 45.7392 36.5561C45.7392 36.3318 45.7392 36.0889 45.7392 35.8272C45.7767 35.5282 45.7954 35.2292 45.7954 34.9302C45.8329 34.7807 45.8517 34.6312 45.8517 34.4817C45.8517 34.3322 45.8517 34.164 45.8517 33.9772C45.8517 33.7903 45.8517 33.6221 45.8517 33.4726C45.8892 33.2857 45.9079 33.0988 45.9079 32.9119C45.9079 32.5008 45.9079 32.0897 45.9079 31.6786C45.9454 31.2674 45.9642 30.8563 45.9642 30.4452C45.9642 30.034 45.9642 29.6042 45.9642 29.1557C46.0017 28.6698 46.0204 28.1839 46.0204 27.6981V26.2965C46.0204 25.9601 46.0392 25.7172 46.0767 25.5677V18.784ZM57.6647 33.9211C57.6272 34.0332 57.6085 34.2201 57.6085 34.4817V35.4909C57.6085 35.6777 57.5897 35.8459 57.5522 35.9954C57.5522 36.1449 57.5522 36.2944 57.5522 36.4439C57.5522 36.5934 57.5335 36.7243 57.496 36.8364C57.496 36.9485 57.496 37.0606 57.496 37.1728V37.341C57.4585 37.3783 57.4397 37.4344 57.4397 37.5091V37.7895C57.4022 37.8268 57.3835 37.8642 57.3835 37.9016V38.0137C57.3835 38.0511 57.3647 38.0885 57.3272 38.1258C57.3272 38.1258 57.3272 38.1445 57.3272 38.1819C57.3272 38.2193 57.3085 38.2567 57.271 38.294H57.3272C57.3272 38.294 57.346 38.2567 57.3835 38.1819C57.3835 38.1819 57.4022 38.1445 57.4397 38.0698C57.4772 38.0324 57.496 37.995 57.496 37.9576C57.5335 37.9203 57.5522 37.8829 57.5522 37.8455C57.5897 37.8081 57.6085 37.7708 57.6085 37.7334C57.646 37.696 57.6647 37.64 57.6647 37.5652C57.7398 37.4905 57.7773 37.397 57.7773 37.2849C57.8523 37.1354 57.9273 36.8738 58.0023 36.5C58.0773 36.2757 58.1148 36.1262 58.1148 36.0515C58.1523 35.9767 58.171 35.902 58.171 35.8272C58.171 35.7151 58.1898 35.6217 58.2273 35.5469C58.2273 35.4722 58.2273 35.3974 58.2273 35.3227C58.2648 35.2105 58.2835 35.1171 58.2835 35.0424C58.321 34.9302 58.3398 34.762 58.3398 34.5378C58.3773 34.3509 58.396 34.164 58.396 33.9772C58.396 33.7903 58.4148 33.6034 58.4523 33.4165V31.0619C58.4523 30.875 58.4335 30.6881 58.396 30.5012C58.396 30.3144 58.3773 30.1275 58.3398 29.9406C58.3398 29.7163 58.321 29.5482 58.2835 29.436C58.2835 29.3613 58.2648 29.2865 58.2273 29.2118C58.2273 29.0996 58.2273 29.0062 58.2273 28.9315C58.1898 28.8567 58.171 28.782 58.171 28.7072C58.171 28.5951 58.1523 28.5016 58.1148 28.4269C58.1148 28.3521 58.096 28.2774 58.0585 28.2026C58.0585 28.1279 58.0585 28.0531 58.0585 27.9784C57.9835 27.7541 57.946 27.6233 57.946 27.5859C57.9085 27.4738 57.8523 27.343 57.7773 27.1935C57.7773 27.0814 57.7398 26.9879 57.6647 26.9132C57.6647 26.8011 57.6272 26.7076 57.5522 26.6329C57.4772 26.4834 57.421 26.3712 57.3835 26.2965C57.346 26.2591 57.3272 26.2217 57.3272 26.1844H57.271C57.271 26.1844 57.2897 26.2217 57.3272 26.2965C57.3272 26.3339 57.3272 26.3712 57.3272 26.4086C57.3647 26.4086 57.3835 26.4273 57.3835 26.4647C57.3835 26.5394 57.4022 26.6142 57.4397 26.6889V26.9692C57.4772 27.044 57.496 27.1374 57.496 27.2496C57.496 27.4364 57.5147 27.5673 57.5522 27.642V28.0344C57.5897 28.1839 57.6085 28.3334 57.6085 28.483C57.6085 28.6325 57.6085 28.8006 57.6085 28.9875V29.4921C57.6085 29.5668 57.6085 29.6603 57.6085 29.7724C57.646 29.8472 57.6647 29.9219 57.6647 29.9967V33.9211ZM55.3584 31.4543C55.3584 30.9684 55.3396 30.277 55.3021 29.38C55.2646 28.483 55.1334 27.5859 54.9084 26.6889C54.6834 25.7919 54.3271 25.0257 53.8396 24.3903C53.3895 23.7176 52.7145 23.3812 51.8145 23.3812H49.7894C49.3769 23.3812 49.0206 23.5307 48.7206 23.8297C48.4206 24.1287 48.2705 24.4838 48.2705 24.8949V39.4714C48.2705 39.8825 48.4206 40.2376 48.7206 40.5366C49.0206 40.7982 49.3769 40.9477 49.7894 40.9851H51.8145C52.7145 40.9851 53.3895 40.7608 53.8396 40.3123C54.3271 39.8264 54.6834 39.2658 54.9084 38.6304C55.1334 37.995 55.2646 37.3223 55.3021 36.6121C55.3396 35.902 55.3584 35.304 55.3584 34.8181V31.4543ZM55.3584 8.74867C55.3584 8.26279 55.3396 7.68347 55.3021 7.01071C55.2646 6.30057 55.1334 5.62781 54.9084 4.99243C54.6834 4.35704 54.3271 3.8151 53.8396 3.36659C53.3895 2.88071 52.7145 2.63777 51.8145 2.63777H49.7894C49.3769 2.63777 49.0206 2.78727 48.7206 3.08627C48.4206 3.38528 48.2705 3.74035 48.2705 4.15148V19.2325C48.2705 19.6436 48.4206 19.9987 48.7206 20.2977C49.0206 20.5967 49.3769 20.7462 49.7894 20.7462H51.8145C52.7145 20.7462 53.3895 20.522 53.8396 20.0735C54.3271 19.625 54.6834 19.083 54.9084 18.4476C55.1334 17.7749 55.2646 17.1021 55.3021 16.4293C55.3396 15.7192 55.3584 15.1212 55.3584 14.6353V8.74867ZM57.8898 16.149C57.9648 15.9248 58.0023 15.7753 58.0023 15.7005C58.0773 15.551 58.1148 15.4015 58.1148 15.252C58.1523 15.1773 58.171 15.1025 58.171 15.0278C58.171 14.9156 58.1898 14.8222 58.2273 14.7474C58.2273 14.6727 58.2273 14.5979 58.2273 14.5232C58.2648 14.4111 58.2835 14.2989 58.2835 14.1868C58.321 14.0747 58.3398 13.8878 58.3398 13.6262C58.3773 13.4393 58.396 13.2524 58.396 13.0655C58.396 12.8787 58.4148 12.6918 58.4523 12.5049V11.2715C58.4523 10.8604 58.4523 10.4679 58.4523 10.0942C58.4523 9.68306 58.4335 9.29061 58.396 8.91686C58.3585 8.80473 58.3398 8.71129 58.3398 8.63654C58.3398 8.52442 58.321 8.43098 58.2835 8.35623C58.2835 8.0946 58.2648 7.90772 58.2273 7.79559C58.1898 7.60871 58.1523 7.44052 58.1148 7.29102C58.1148 7.14152 58.096 6.99202 58.0585 6.84252C57.9835 6.61826 57.946 6.46876 57.946 6.39401C57.871 6.24451 57.8335 6.13238 57.8335 6.05763C57.7585 5.90813 57.7023 5.796 57.6647 5.72125C57.6647 5.60912 57.6272 5.51569 57.5522 5.44093C57.5147 5.32881 57.4585 5.19799 57.3835 5.04849L57.271 4.93636V4.99243C57.271 5.0298 57.271 5.04849 57.271 5.04849C57.3085 5.04849 57.3272 5.06718 57.3272 5.10455C57.3647 5.14193 57.3835 5.19799 57.3835 5.27274C57.3835 5.3475 57.4022 5.42225 57.4397 5.497V5.77731C57.4772 5.85206 57.496 5.96419 57.496 6.11369C57.496 6.18844 57.496 6.2632 57.496 6.33795C57.5335 6.37532 57.5522 6.43139 57.5522 6.50614V6.89858C57.5897 7.04808 57.6085 7.19758 57.6085 7.34709C57.6085 7.49659 57.6085 7.66478 57.6085 7.85166V8.41229C57.6085 8.48704 57.6085 8.58048 57.6085 8.69261C57.646 8.76736 57.6647 8.84211 57.6647 8.91686V13.0655C57.6272 13.1777 57.6085 13.3645 57.6085 13.6262V14.6914C57.6085 14.8783 57.5897 15.0464 57.5522 15.1959C57.5522 15.3455 57.5522 15.495 57.5522 15.6445C57.5522 15.794 57.5335 15.9435 57.496 16.093C57.496 16.2051 57.496 16.3172 57.496 16.4293C57.496 16.6162 57.4772 16.7283 57.4397 16.7657V17.1021C57.4022 17.1021 57.3835 17.1395 57.3835 17.2142V17.3264C57.3835 17.3637 57.3647 17.4011 57.3272 17.4385C57.3272 17.4385 57.3272 17.4572 57.3272 17.4945C57.3272 17.5319 57.3085 17.5693 57.271 17.6067L57.3835 17.4945C57.3835 17.4572 57.3835 17.4385 57.3835 17.4385C57.421 17.4011 57.4397 17.3637 57.4397 17.3264C57.4772 17.3264 57.496 17.289 57.496 17.2142C57.5335 17.2142 57.5522 17.1769 57.5522 17.1021C57.5897 17.1021 57.6085 17.0647 57.6085 16.99C57.646 16.9526 57.6647 16.8965 57.6647 16.8218C57.7398 16.747 57.7773 16.6536 57.7773 16.5415C57.8523 16.3172 57.8898 16.1864 57.8898 16.149Z" fill="#F4EDE8"/>
<path d="M81.867 38.4062C82.017 39.0415 82.1858 39.5087 82.3733 39.8077C82.5608 40.1067 82.7483 40.3497 82.9358 40.5366C83.1233 40.7234 83.2921 40.8916 83.4421 41.0411C83.5921 41.1906 83.7046 41.4336 83.7796 41.77H80.7982C80.5357 41.77 80.292 41.6765 80.0669 41.4896C79.8794 41.3028 79.7669 41.0785 79.7294 40.8169C79.7669 41.0785 79.7107 41.3028 79.5607 41.4896C79.4107 41.6765 79.2232 41.77 78.9981 41.77H76.0167C75.9417 41.4336 75.9605 41.1906 76.073 41.0411C76.1855 40.8916 76.298 40.7421 76.4105 40.5926C76.523 40.4057 76.6168 40.1628 76.6918 39.8638C76.7668 39.5274 76.748 39.0229 76.6355 38.3501V38.294L75.398 31.9589C75.323 31.5851 75.1167 31.2674 74.7792 31.0058C74.4417 30.7068 74.0667 30.5573 73.6541 30.5573H69.7727C69.3602 30.5573 68.9852 30.7068 68.6476 31.0058C68.3101 31.2674 68.1039 31.5851 68.0289 31.9589L66.8476 38.294V38.3501C66.7351 39.0229 66.6976 39.5274 66.7351 39.8638C66.8101 40.1628 66.9038 40.4057 67.0163 40.5926C67.1663 40.7421 67.2788 40.8916 67.3538 41.0411C67.4663 41.1906 67.5038 41.4336 67.4663 41.77H64.4849C64.2224 41.77 64.0162 41.6765 63.8662 41.4896C63.7162 41.3028 63.6599 41.0785 63.6974 40.8169C63.6599 41.0785 63.5474 41.3028 63.3599 41.4896C63.1724 41.6765 62.9474 41.77 62.6849 41.77H59.7035C59.741 41.4336 59.8347 41.1906 59.9847 41.0411C60.1347 40.8916 60.3035 40.7234 60.491 40.5366C60.6785 40.3497 60.866 40.1067 61.0535 39.8077C61.241 39.5087 61.4098 39.0415 61.5598 38.4062L64.0912 24.7828C64.1662 24.2595 64.1099 23.7736 63.9224 23.3251C63.7349 22.8766 63.4349 22.5216 63.0224 22.2599C63.6224 21.9983 64.1662 21.8675 64.6537 21.8675L67.6914 5.88944C67.8039 5.25406 67.8226 4.78686 67.7476 4.48786C67.6726 4.15148 67.5788 3.90854 67.4663 3.75904C67.3538 3.57216 67.2413 3.40397 67.1288 3.25447C67.0163 3.10496 66.9976 2.86202 67.0726 2.52564H70.8415C71.404 2.60039 71.6853 2.91809 71.6853 3.47872C71.6853 3.21709 71.7603 3.01152 71.9103 2.86202C72.0978 2.67514 72.3041 2.56302 72.5291 2.52564H76.3543C76.4293 2.86202 76.4105 3.10496 76.298 3.25447C76.223 3.40397 76.1292 3.57216 76.0167 3.75904C75.9042 3.90854 75.8105 4.15148 75.7355 4.48786C75.6605 4.78686 75.6792 5.25406 75.7917 5.88944L78.7731 21.8675C79.0732 21.8675 79.3544 21.9049 79.6169 21.9796C79.8794 22.0544 80.1419 22.1478 80.4045 22.2599C79.5794 22.7832 79.2232 23.6241 79.3357 24.7828L81.867 38.4062ZM68.3664 18.3355C68.4414 18.1112 68.4789 17.9057 68.4789 17.7188C68.5164 17.4945 68.5539 17.289 68.5914 17.1021C68.7789 16.2425 68.9289 15.4389 69.0414 14.6914C69.1539 13.9065 69.2664 13.1964 69.3789 12.561C69.4539 12.262 69.4914 11.963 69.4914 11.664C69.5289 11.365 69.5664 11.066 69.6039 10.7669C69.6414 10.5053 69.6789 10.2624 69.7164 10.0381C69.754 9.81387 69.7915 9.60831 69.829 9.42143C69.8665 9.23455 69.8852 9.06636 69.8852 8.91686C69.8852 8.72998 69.904 8.58048 69.9415 8.46835V8.2441L69.8852 8.46835C69.8477 8.58048 69.8102 8.71129 69.7727 8.8608C69.7352 9.0103 69.6977 9.17849 69.6602 9.36537C69.5852 9.55224 69.5289 9.7765 69.4914 10.0381C69.4539 10.2624 69.3977 10.4866 69.3227 10.7109C69.2477 11.0099 69.1727 11.3089 69.0977 11.6079C69.0602 11.9069 69.0039 12.2059 68.9289 12.5049C68.7414 13.1403 68.5539 13.8317 68.3664 14.5793C68.2164 15.2894 68.0476 16.0743 67.8601 16.9339C67.8601 17.1582 67.8414 17.3637 67.8039 17.5506C67.7664 17.7375 67.7101 17.9431 67.6351 18.1673C67.5976 18.3916 67.5601 18.6158 67.5226 18.8401C67.4851 19.0269 67.4476 19.2325 67.4101 19.4568C67.2976 19.8679 67.1851 20.2977 67.0726 20.7462C66.9976 21.1947 66.9226 21.6432 66.8476 22.0917C66.7726 22.5029 66.6788 22.9327 66.5663 23.3812C66.4913 23.8297 66.4163 24.2595 66.3413 24.6706C66.3038 24.7828 66.285 24.8949 66.285 25.007C66.285 25.0818 66.2663 25.1752 66.2288 25.2873C66.1538 25.5863 66.1163 25.8106 66.1163 25.9601C66.0038 26.3339 65.9288 26.745 65.8913 27.1935C65.8163 27.6046 65.7413 28.0158 65.6663 28.4269C65.5912 28.838 65.535 29.2118 65.4975 29.5482C65.385 30.4078 65.2725 31.1179 65.16 31.6786C65.085 31.9776 65.0287 32.2766 64.9912 32.5756C64.9537 32.8746 64.9162 33.1736 64.8787 33.4726C64.8037 33.7342 64.7475 33.9958 64.71 34.2575C64.71 34.4817 64.6912 34.6873 64.6537 34.8742C64.6162 35.061 64.5975 35.2292 64.5975 35.3787C64.5975 35.5282 64.5787 35.6591 64.5412 35.7712C64.5412 35.8459 64.5225 35.902 64.4849 35.9394C64.4849 35.9394 64.4849 35.9581 64.4849 35.9954V36.0515C64.5225 36.0515 64.5412 36.0328 64.5412 35.9954C64.5412 35.9207 64.56 35.8459 64.5975 35.7712C64.635 35.6964 64.6537 35.5843 64.6537 35.4348C64.6912 35.2479 64.7475 35.061 64.8225 34.8742C64.8975 34.6873 64.9537 34.4817 64.9912 34.2575C65.0662 34.0332 65.1412 33.7903 65.2162 33.5286C65.2912 33.267 65.3475 32.9867 65.385 32.6877C65.46 32.3887 65.5162 32.0897 65.5537 31.7907C65.6287 31.4917 65.7038 31.174 65.7788 30.8376C65.8913 30.4639 65.985 30.0901 66.06 29.7163C66.135 29.3426 66.21 28.9501 66.285 28.539C66.3975 28.1279 66.51 27.7168 66.6226 27.3056C66.66 27.1187 66.6976 26.9319 66.7351 26.745C66.7726 26.5207 66.8101 26.3152 66.8476 26.1283L67.0163 25.4555C67.0538 25.3434 67.0726 25.2313 67.0726 25.1192C67.0726 25.007 67.0913 24.8949 67.1288 24.7828C67.2038 24.3716 67.2976 23.9605 67.4101 23.5494C67.5226 23.1009 67.6163 22.6524 67.6914 22.2039C67.7664 21.7927 67.8414 21.3629 67.9164 20.9144C67.9914 20.4659 68.0664 20.0361 68.1414 19.6249C68.1789 19.4007 68.2164 19.1764 68.2539 18.9522C68.2914 18.7279 68.3289 18.5224 68.3664 18.3355ZM73.1479 27.9223C73.5604 27.8849 73.8791 27.7354 74.1042 27.4738C74.3667 27.1748 74.4604 26.8197 74.3854 26.4086L74.0479 24.7828C73.8979 24.2595 73.6354 23.7736 73.2604 23.3251C72.9229 22.8766 72.5103 22.5216 72.0228 22.2599C72.4728 21.9983 72.9604 21.8675 73.4854 21.8675L71.6853 12.2807L69.8852 21.8675C70.3727 21.8675 70.879 21.9983 71.404 22.2599C70.879 22.5216 70.429 22.8766 70.054 23.3251C69.7164 23.7736 69.4914 24.2595 69.3789 24.7828L69.0977 26.4086C69.0227 26.8197 69.0977 27.1748 69.3227 27.4738C69.5477 27.7354 69.8477 27.8849 70.2227 27.9223H73.1479ZM78.8294 35.7712C78.8294 35.8459 78.8294 35.902 78.8294 35.9394C78.8669 35.9394 78.8856 35.9581 78.8856 35.9954V35.7712C78.8481 35.6591 78.8294 35.5282 78.8294 35.3787C78.8294 35.2292 78.8106 35.061 78.7731 34.8742C78.7356 34.6873 78.6981 34.4817 78.6606 34.2575C78.6606 33.9958 78.6231 33.7342 78.5481 33.4726C78.5106 33.1736 78.4731 32.8746 78.4356 32.5756C78.3981 32.2766 78.3419 31.9776 78.2669 31.6786C78.1544 31.1179 78.0418 30.4078 77.9293 29.5482C77.8543 29.2118 77.7793 28.838 77.7043 28.4269C77.6668 28.0158 77.6106 27.6046 77.5356 27.1935C77.4606 26.9692 77.4043 26.7637 77.3668 26.5768C77.3668 26.3899 77.3293 26.1844 77.2543 25.9601C77.2543 25.8106 77.2168 25.5863 77.1418 25.2873C77.1418 25.1752 77.1231 25.0818 77.0855 25.007C77.0855 24.8949 77.0855 24.7828 77.0855 24.6706C77.0106 24.2595 76.9168 23.8297 76.8043 23.3812C76.7293 22.9327 76.6543 22.5029 76.5793 22.0917C76.5043 21.6432 76.4105 21.1947 76.298 20.7462C76.223 20.2977 76.1292 19.8679 76.0167 19.4568C75.9792 19.2325 75.9417 19.0269 75.9042 18.8401C75.8667 18.6158 75.8292 18.3916 75.7917 18.1673C75.7167 17.9431 75.6605 17.7375 75.623 17.5506C75.5855 17.3637 75.548 17.1582 75.5105 16.9339C75.323 16.0743 75.1355 15.2894 74.948 14.5793C74.7979 13.8317 74.6667 13.1403 74.5542 12.5049C74.4792 12.2059 74.4042 11.9069 74.3292 11.6079C74.2542 11.3089 74.1792 11.0099 74.1042 10.7109C74.0292 10.4866 73.9541 10.2624 73.8791 10.0381C73.8416 9.7765 73.7854 9.55224 73.7104 9.36537C73.6729 9.17849 73.6354 9.0103 73.5979 8.8608C73.5604 8.71129 73.5229 8.58048 73.4854 8.46835L73.4291 8.2441V8.46835C73.4666 8.65523 73.5229 8.97292 73.5979 9.42143C73.5979 9.60831 73.6166 9.81387 73.6541 10.0381C73.6916 10.2624 73.7291 10.5053 73.7666 10.7669C73.8041 11.066 73.8416 11.365 73.8791 11.664C73.9166 11.963 73.9729 12.262 74.0479 12.561C74.1604 13.1964 74.2729 13.9065 74.3854 14.6914C74.4979 15.4389 74.6292 16.2425 74.7792 17.1021C74.8167 17.289 74.8354 17.4945 74.8354 17.7188C74.8729 17.9057 74.9292 18.1112 75.0042 18.3355C75.0417 18.5224 75.0792 18.7279 75.1167 18.9522C75.1542 19.1764 75.1917 19.4007 75.2292 19.6249C75.3042 20.0361 75.3792 20.4659 75.4542 20.9144C75.5667 21.3629 75.6605 21.7927 75.7355 22.2039C75.8105 22.6524 75.9042 23.1009 76.0167 23.5494C76.1292 23.9605 76.223 24.3716 76.298 24.7828C76.3355 24.8949 76.3543 25.007 76.3543 25.1192C76.3543 25.2313 76.373 25.3434 76.4105 25.4555L76.5793 26.1283C76.6168 26.3152 76.6543 26.5207 76.6918 26.745C76.7293 26.9319 76.7668 27.1187 76.8043 27.3056C76.9168 27.7168 77.0106 28.1279 77.0855 28.539C77.1606 28.9501 77.2356 29.3426 77.3106 29.7163C77.3856 30.0901 77.4606 30.4639 77.5356 30.8376C77.6481 31.174 77.7418 31.4917 77.8168 31.7907C77.8918 32.0897 77.9669 32.3887 78.0418 32.6877C78.1169 32.9867 78.1919 33.267 78.2669 33.5286C78.3794 34.0519 78.4919 34.5004 78.6044 34.8742C78.6794 35.061 78.7169 35.2479 78.7169 35.4348C78.7544 35.5843 78.7919 35.6964 78.8294 35.7712Z" fill="#F4EDE8"/>
<path d="M105.469 44.1246C105.882 44.1994 106.163 44.3302 106.313 44.5171C106.5 44.7039 106.632 44.8908 106.707 45.0777C106.782 45.3019 106.819 45.5449 106.819 45.8065C105.619 45.8065 104.494 45.657 103.444 45.358C102.394 45.059 101.456 44.5731 100.631 43.9004C99.8437 43.2276 99.2062 42.3493 98.7187 41.2654C98.2686 40.1815 98.0436 38.8547 98.0436 37.2849V29.6042C98.0436 29.1183 98.0249 28.5203 97.9874 27.8102C97.9499 27.1001 97.8186 26.4273 97.5936 25.7919C97.3686 25.1565 97.0123 24.6146 96.5248 24.1661C96.0748 23.6802 95.3998 23.4373 94.4997 23.4373H92.1934C91.8558 23.512 91.5558 23.6989 91.2933 23.9979C91.0683 24.2595 90.9558 24.5772 90.9558 24.951V38.3501C90.9558 39.0229 91.012 39.5274 91.1245 39.8638C91.2746 40.1628 91.4246 40.4057 91.5746 40.5926C91.7246 40.7421 91.8558 40.8916 91.9683 41.0411C92.1183 41.1906 92.1934 41.4336 92.1934 41.77H89.212C88.987 41.77 88.7807 41.6765 88.5932 41.4896C88.4057 41.3028 88.3119 41.0972 88.3119 40.8729C88.3119 41.0972 88.2182 41.3028 88.0307 41.4896C87.8806 41.6765 87.6744 41.77 87.4119 41.77H84.4867C84.4867 41.4336 84.543 41.1906 84.6555 41.0411C84.8055 40.8916 84.9555 40.7421 85.1055 40.5926C85.2555 40.4057 85.3868 40.1628 85.4993 39.8638C85.6493 39.5648 85.7243 39.0976 85.7243 38.4622V24.7828C85.6118 23.6241 85.0868 22.7832 84.1492 22.2599C84.5617 21.9983 85.0868 21.8675 85.7243 21.8675V5.83338C85.7243 5.19799 85.6493 4.7308 85.4993 4.4318C85.3868 4.13279 85.2555 3.90854 85.1055 3.75904C84.9555 3.57216 84.8055 3.40397 84.6555 3.25447C84.543 3.10496 84.4867 2.86202 84.4867 2.52564H87.4681C87.6931 2.52564 87.8994 2.61908 88.0869 2.80596C88.2744 2.95546 88.3682 3.16103 88.3682 3.42266C88.3682 2.82465 88.6682 2.52564 89.2682 2.52564H94.556C95.756 2.52564 96.8811 2.7499 97.9311 3.1984C98.9812 3.64691 99.9 4.2636 100.688 5.04849C101.475 5.796 102.094 6.69301 102.544 7.73953C102.994 8.78604 103.238 9.88862 103.275 11.0473V14.6914C103.275 16.2612 102.9 17.7001 102.15 19.0083C101.4 20.3164 100.388 21.3629 99.1124 22.1478C100.388 22.8953 101.4 23.9418 102.15 25.2873C102.9 26.5955 103.275 28.0344 103.275 29.6042V37.0606C103.275 37.8455 103.275 38.6491 103.275 39.4714C103.313 40.2562 103.406 40.9851 103.556 41.6578C103.706 42.2932 103.931 42.8352 104.231 43.2837C104.531 43.7322 104.944 44.0125 105.469 44.1246ZM100.35 13.7383C100.312 13.8131 100.294 13.9065 100.294 14.0186V15.3081C100.256 15.4576 100.237 15.6071 100.237 15.7566C100.237 15.8687 100.237 15.9808 100.237 16.093C100.237 16.1677 100.219 16.2238 100.181 16.2612C100.181 16.2985 100.181 16.3546 100.181 16.4293V16.7657C100.144 16.8405 100.125 16.9339 100.125 17.046C100.125 17.1208 100.106 17.1955 100.069 17.2703C100.069 17.345 100.05 17.4011 100.012 17.4385V17.5506L99.9562 17.6627C99.9562 17.6627 99.9937 17.644 100.069 17.6067V17.5506L100.125 17.4945C100.162 17.4572 100.181 17.4385 100.181 17.4385C100.181 17.4011 100.2 17.3637 100.237 17.3264C100.275 17.2516 100.312 17.1769 100.35 17.1021C100.387 16.99 100.425 16.8965 100.463 16.8218C100.5 16.747 100.519 16.7097 100.519 16.7097C100.519 16.6723 100.537 16.6162 100.575 16.5415C100.613 16.4667 100.631 16.4107 100.631 16.3733C100.631 16.2985 100.65 16.2238 100.688 16.149C100.725 16.0743 100.744 16.0182 100.744 15.9808C100.744 15.9435 100.763 15.8874 100.8 15.8126C100.8 15.7379 100.8 15.6818 100.8 15.6445C100.838 15.5697 100.856 15.495 100.856 15.4202C100.894 15.2707 100.913 15.1212 100.913 14.9717C100.95 14.8222 100.988 14.6727 101.025 14.5232C101.063 14.4111 101.081 14.2429 101.081 14.0186C101.081 13.9439 101.081 13.8691 101.081 13.7944C101.119 13.7196 101.138 13.6449 101.138 13.5701V11.6079C101.138 11.3836 101.119 11.2155 101.081 11.1033V10.8791C101.081 10.8043 101.063 10.7669 101.025 10.7669C101.025 10.7296 101.025 10.6735 101.025 10.5988C101.025 10.4119 100.988 10.1316 100.913 9.75781C100.875 9.68306 100.856 9.60831 100.856 9.53355C100.856 9.4588 100.838 9.38405 100.8 9.3093C100.8 9.27193 100.781 9.25324 100.744 9.25324C100.744 9.21586 100.744 9.17849 100.744 9.14111C100.744 9.10374 100.725 9.08505 100.688 9.08505C100.688 9.04767 100.688 9.0103 100.688 8.97292C100.65 8.89817 100.631 8.84211 100.631 8.80473C100.631 8.76735 100.613 8.71129 100.575 8.63654C100.537 8.56179 100.519 8.50573 100.519 8.46835C100.519 8.43098 100.5 8.37491 100.463 8.30016C100.425 8.26279 100.406 8.22541 100.406 8.18804C100.406 8.15066 100.387 8.11329 100.35 8.07591C100.275 7.92641 100.237 7.85166 100.237 7.85166C100.2 7.81428 100.181 7.79559 100.181 7.79559C100.181 7.75822 100.162 7.72084 100.125 7.68347C100.087 7.64609 100.069 7.60872 100.069 7.57134C100.031 7.53396 100.012 7.49659 100.012 7.45921H99.9562C99.9562 7.45921 99.975 7.49659 100.012 7.57134V7.68347C100.05 7.72084 100.069 7.79559 100.069 7.90772C100.069 7.94509 100.069 7.98247 100.069 8.01984C100.106 8.01984 100.125 8.05722 100.125 8.13197C100.125 8.2441 100.144 8.33754 100.181 8.41229V8.69261C100.181 8.76736 100.181 8.82342 100.181 8.8608C100.219 8.89817 100.237 8.95423 100.237 9.02898C100.237 9.36536 100.256 9.62699 100.294 9.81387V10.7109C100.331 10.8978 100.35 11.1968 100.35 11.6079V13.7383ZM88.7619 19.5128C88.7619 19.3259 88.7432 19.1204 88.7057 18.8961C88.7057 18.6719 88.7057 18.4476 88.7057 18.2234V16.99C88.6682 16.1677 88.6494 15.3828 88.6494 14.6353C88.6494 13.8878 88.6307 13.1777 88.5932 12.5049C88.5557 12.2059 88.5369 11.9069 88.5369 11.6079C88.5369 11.3089 88.5182 11.0286 88.4807 10.7669C88.4807 10.4679 88.4619 10.2063 88.4244 9.98206C88.4244 9.75781 88.4244 9.55224 88.4244 9.36537C88.4244 9.17849 88.4057 9.0103 88.3682 8.8608C88.3682 8.71129 88.3682 8.58048 88.3682 8.46835V8.18804C88.3307 8.18804 88.3119 8.20672 88.3119 8.2441V8.46835C88.3119 8.58048 88.2932 8.71129 88.2557 8.8608C88.2557 9.0103 88.2557 9.17849 88.2557 9.36537C88.2557 9.55224 88.2369 9.75781 88.1994 9.98206C88.1994 10.2063 88.1994 10.4679 88.1994 10.7669C88.1619 11.0286 88.1432 11.3089 88.1432 11.6079C88.1432 11.9069 88.1244 12.2059 88.0869 12.5049C88.0494 13.1777 88.0307 13.8878 88.0307 14.6353C88.0307 15.3828 88.0119 16.1677 87.9744 16.99V18.2234C87.9744 18.4476 87.9557 18.6719 87.9182 18.8961C87.9182 19.1204 87.9182 19.3259 87.9182 19.5128V24.7267C87.9182 25.0257 87.9369 25.25 87.9744 25.3995V27.2496C87.9744 27.6607 87.9744 28.0718 87.9744 28.483C88.0119 28.8567 88.0307 29.2305 88.0307 29.6042C88.0307 30.0153 88.0307 30.3891 88.0307 30.7255C88.0682 31.0619 88.0869 31.3982 88.0869 31.7346C88.1244 32.071 88.1432 32.3887 88.1432 32.6877C88.1432 32.9493 88.1619 33.2296 88.1994 33.5286C88.1994 33.7903 88.1994 34.0332 88.1994 34.2575C88.2369 34.4817 88.2557 34.6873 88.2557 34.8742C88.2557 35.061 88.2557 35.2479 88.2557 35.4348C88.2932 35.5843 88.3119 35.6964 88.3119 35.7712V36.0515C88.3119 36.0889 88.3307 36.1076 88.3682 36.1076V35.7712C88.3682 35.6964 88.3682 35.5843 88.3682 35.4348C88.4057 35.2479 88.4244 35.061 88.4244 34.8742C88.4244 34.6873 88.4244 34.4817 88.4244 34.2575C88.4619 34.0332 88.4807 33.7903 88.4807 33.5286C88.5182 33.2296 88.5369 32.9493 88.5369 32.6877C88.5369 32.3887 88.5557 32.071 88.5932 31.7346C88.5932 31.3982 88.5932 31.0619 88.5932 30.7255C88.6307 30.3891 88.6494 30.0153 88.6494 29.6042C88.6494 29.2305 88.6494 28.8567 88.6494 28.483C88.6869 28.0718 88.7057 27.6607 88.7057 27.2496V26.0162C88.7057 25.7172 88.7244 25.5116 88.7619 25.3995V19.5128ZM98.0436 11.2715C98.0436 10.7856 98.0249 10.1876 97.9874 9.47749C97.9499 8.76736 97.8186 8.0946 97.5936 7.45921C97.3686 6.82383 97.0123 6.28188 96.5248 5.83338C96.0748 5.3475 95.3998 5.10455 94.4997 5.10455H92.4746C92.0621 5.14193 91.7058 5.31012 91.4058 5.60912C91.1058 5.90813 90.9558 6.2632 90.9558 6.67433V19.2886C90.9558 19.6997 91.1058 20.0548 91.4058 20.3538C91.7058 20.6528 92.0621 20.8023 92.4746 20.8023H94.4997C95.3998 20.8023 96.0748 20.578 96.5248 20.1295C97.0123 19.681 97.3686 19.1391 97.5936 18.5037C97.8186 17.8309 97.9499 17.1582 97.9874 16.4854C98.0249 15.7753 98.0436 15.1773 98.0436 14.6914V11.2715ZM101.813 41.9942C101.813 41.9942 101.794 41.9755 101.756 41.9381L101.7 41.8821C101.663 41.8073 101.625 41.7326 101.588 41.6578C101.588 41.5831 101.55 41.5083 101.475 41.4336C101.438 41.3214 101.4 41.2093 101.363 41.0972C101.325 40.9477 101.288 40.7795 101.25 40.5926C101.175 40.2189 101.138 39.8638 101.138 39.5274C101.1 39.3405 101.081 39.1537 101.081 38.9668C101.081 38.7425 101.081 38.4996 101.081 38.238V35.2666C101.081 35.005 101.081 34.7434 101.081 34.4817C101.081 34.2201 101.1 33.9398 101.138 33.6408C101.138 33.3791 101.138 33.1175 101.138 32.8559C101.138 32.5943 101.119 32.3326 101.081 32.071V31.2861C101.081 30.9124 101.063 30.6507 101.025 30.5012C101.025 30.2396 101.006 29.9967 100.969 29.7724C100.969 29.5108 100.95 29.2678 100.913 29.0436C100.838 28.5203 100.763 28.0718 100.688 27.6981C100.65 27.5112 100.613 27.343 100.575 27.1935C100.537 27.0066 100.481 26.8197 100.406 26.6329C100.331 26.446 100.275 26.2965 100.237 26.1844C100.2 26.0722 100.144 25.9601 100.069 25.848C99.9937 25.7358 99.9375 25.6424 99.9 25.5677C99.8625 25.4929 99.825 25.4182 99.7875 25.3434C99.75 25.3434 99.7125 25.3247 99.675 25.2873C99.6375 25.2873 99.6187 25.2687 99.6187 25.2313L99.675 25.2873C99.675 25.3247 99.6937 25.3621 99.7312 25.3995C99.7312 25.4368 99.7312 25.4742 99.7312 25.5116C99.7687 25.5116 99.7875 25.549 99.7875 25.6237C99.825 25.6611 99.8437 25.6985 99.8437 25.7358C99.8437 25.7732 99.8625 25.8293 99.9 25.904C99.9375 26.0535 99.9937 26.3152 100.069 26.6889C100.106 26.8758 100.125 27.0627 100.125 27.2496C100.162 27.4364 100.2 27.6233 100.237 27.8102C100.237 27.9971 100.237 28.2026 100.237 28.4269C100.275 28.6138 100.294 28.838 100.294 29.0996V36.0515C100.294 36.201 100.294 36.3318 100.294 36.4439C100.331 36.5561 100.35 36.6869 100.35 36.8364C100.35 37.098 100.35 37.3596 100.35 37.6213C100.387 37.8455 100.425 38.0698 100.463 38.294C100.5 38.5183 100.519 38.7425 100.519 38.9668C100.556 39.191 100.594 39.3966 100.631 39.5835C100.706 39.8077 100.763 40.0133 100.8 40.2002C100.838 40.3497 100.894 40.5179 100.969 40.7048C101.044 40.8916 101.1 41.0411 101.138 41.1533C101.175 41.2654 101.231 41.3775 101.306 41.4896L101.419 41.6018C101.456 41.6391 101.475 41.6765 101.475 41.7139C101.475 41.7139 101.494 41.7326 101.531 41.77L101.756 41.9942H101.813Z" fill="#F4EDE8"/>
<path d="M122.336 14.6914C122.336 16.2612 121.961 17.7001 121.211 19.0083C120.461 20.3164 119.448 21.3629 118.173 22.1478C119.448 22.8953 120.461 23.9418 121.211 25.2873C121.961 26.5955 122.336 28.0344 122.336 29.6042V33.2483C122.299 34.4444 122.055 35.5656 121.605 36.6121C121.155 37.6213 120.536 38.5183 119.748 39.3032C118.961 40.0507 118.042 40.6487 116.992 41.0972C115.942 41.5457 114.817 41.77 113.617 41.77H108.273C108.048 41.77 107.842 41.6765 107.654 41.4896C107.467 41.3028 107.373 41.0972 107.373 40.8729C107.373 41.0972 107.279 41.3028 107.092 41.4896C106.942 41.6765 106.735 41.77 106.473 41.77H103.548C103.548 41.4336 103.604 41.1906 103.716 41.0411C103.866 40.8916 104.016 40.7421 104.166 40.5926C104.316 40.4057 104.448 40.1628 104.56 39.8638C104.71 39.5648 104.785 39.0976 104.785 38.4622V24.7828C104.673 23.6241 104.148 22.7832 103.21 22.2599C103.623 21.9983 104.148 21.8675 104.785 21.8675V5.83338C104.785 5.19799 104.71 4.7308 104.56 4.4318C104.448 4.13279 104.316 3.90854 104.166 3.75904C104.016 3.57216 103.866 3.40397 103.716 3.25447C103.604 3.10496 103.548 2.86202 103.548 2.52564H106.529C106.754 2.52564 106.96 2.61908 107.148 2.80596C107.335 2.95546 107.429 3.16103 107.429 3.42266C107.429 2.82465 107.729 2.52564 108.329 2.52564H113.617C114.817 2.52564 115.942 2.7499 116.992 3.1984C118.042 3.64691 118.961 4.2636 119.748 5.04849C120.536 5.796 121.155 6.69301 121.605 7.73953C122.055 8.78604 122.299 9.88862 122.336 11.0473V14.6914ZM107.823 19.5128C107.823 19.3259 107.804 19.1204 107.767 18.8961C107.767 18.6719 107.767 18.4476 107.767 18.2234V16.99C107.729 16.1677 107.71 15.3828 107.71 14.6353C107.71 13.8878 107.692 13.1777 107.654 12.5049C107.617 12.2059 107.598 11.9069 107.598 11.6079C107.598 11.3089 107.579 11.0286 107.542 10.7669C107.542 10.4679 107.523 10.2063 107.485 9.98206C107.485 9.75781 107.485 9.55224 107.485 9.36537C107.485 9.17849 107.467 9.0103 107.429 8.8608C107.429 8.71129 107.429 8.58048 107.429 8.46835V8.18804C107.392 8.18804 107.373 8.20672 107.373 8.2441V8.46835C107.373 8.58048 107.354 8.71129 107.317 8.8608C107.317 9.0103 107.317 9.17849 107.317 9.36537C107.317 9.55224 107.298 9.75781 107.26 9.98206C107.26 10.2063 107.26 10.4679 107.26 10.7669C107.223 11.0286 107.204 11.3089 107.204 11.6079C107.204 11.9069 107.185 12.2059 107.148 12.5049C107.11 13.1777 107.092 13.8878 107.092 14.6353C107.092 15.3828 107.073 16.1677 107.035 16.99V18.2234C107.035 18.4476 107.017 18.6719 106.979 18.8961C106.979 19.1204 106.979 19.3259 106.979 19.5128V24.7267C106.979 25.0257 106.998 25.25 107.035 25.3995V27.2496C107.035 27.6607 107.035 28.0718 107.035 28.483C107.073 28.8567 107.092 29.2305 107.092 29.6042C107.092 30.0153 107.092 30.3891 107.092 30.7255C107.129 31.0619 107.148 31.3982 107.148 31.7346C107.185 32.071 107.204 32.3887 107.204 32.6877C107.204 32.9493 107.223 33.2296 107.26 33.5286C107.26 33.7903 107.26 34.0332 107.26 34.2575C107.298 34.4817 107.317 34.6873 107.317 34.8742C107.317 35.061 107.317 35.2479 107.317 35.4348C107.354 35.5843 107.373 35.6964 107.373 35.7712V36.0515C107.373 36.0889 107.392 36.1076 107.429 36.1076V35.7712C107.429 35.6964 107.429 35.5843 107.429 35.4348C107.467 35.2479 107.485 35.061 107.485 34.8742C107.485 34.6873 107.485 34.4817 107.485 34.2575C107.523 34.0332 107.542 33.7903 107.542 33.5286C107.579 33.2296 107.598 32.9493 107.598 32.6877C107.598 32.3887 107.617 32.071 107.654 31.7346C107.654 31.3982 107.654 31.0619 107.654 30.7255C107.692 30.3891 107.71 30.0153 107.71 29.6042C107.71 29.2305 107.71 28.8567 107.71 28.483C107.748 28.0718 107.767 27.6607 107.767 27.2496V26.0162C107.767 25.7172 107.785 25.5116 107.823 25.3995V19.5128ZM119.411 32.5195C119.373 32.5943 119.355 32.6877 119.355 32.7998V34.0893C119.317 34.2388 119.298 34.3883 119.298 34.5378C119.298 34.6499 119.298 34.762 119.298 34.8742C119.298 34.9489 119.28 35.005 119.242 35.0424C119.242 35.0797 119.242 35.1358 119.242 35.2105V35.5469C119.205 35.6217 119.186 35.7151 119.186 35.8272C119.186 35.902 119.167 35.9767 119.13 36.0515C119.13 36.1262 119.111 36.1823 119.073 36.2197V36.3318L119.017 36.4439C119.017 36.4439 119.055 36.4253 119.13 36.3879V36.3318L119.186 36.2757C119.223 36.2384 119.242 36.2197 119.242 36.2197C119.242 36.1823 119.261 36.1449 119.298 36.1076C119.336 36.0328 119.373 35.9581 119.411 35.8833C119.448 35.7712 119.486 35.6777 119.523 35.603C119.561 35.5282 119.58 35.4909 119.58 35.4909C119.58 35.4535 119.598 35.3974 119.636 35.3227C119.673 35.2479 119.692 35.1919 119.692 35.1545C119.692 35.1171 119.711 35.061 119.748 34.9863C119.786 34.9115 119.805 34.8555 119.805 34.8181C119.805 34.7434 119.823 34.6686 119.861 34.5938C119.861 34.5191 119.861 34.463 119.861 34.4257C119.898 34.3509 119.917 34.2762 119.917 34.2014C119.955 34.0519 119.973 33.9024 119.973 33.7529C120.011 33.6034 120.048 33.4539 120.086 33.3044C120.123 33.1923 120.142 33.0241 120.142 32.7998C120.142 32.7251 120.142 32.6503 120.142 32.5756C120.18 32.5008 120.198 32.4261 120.198 32.3513V30.3891C120.198 30.1649 120.18 29.9967 120.142 29.8845V29.6603C120.142 29.5855 120.123 29.5482 120.086 29.5482C120.086 29.5108 120.086 29.4734 120.086 29.436C120.086 29.2492 120.067 29.0996 120.03 28.9875C120.03 28.838 120.011 28.6885 119.973 28.539C119.936 28.4643 119.917 28.3895 119.917 28.3148C119.917 28.24 119.898 28.1653 119.861 28.0905C119.861 28.0531 119.842 28.0344 119.805 28.0344C119.805 27.9971 119.805 27.9597 119.805 27.9223C119.805 27.8849 119.786 27.8663 119.748 27.8663C119.748 27.8289 119.748 27.7915 119.748 27.7541C119.711 27.6794 119.692 27.6233 119.692 27.5859C119.692 27.5486 119.673 27.4925 119.636 27.4177C119.598 27.343 119.58 27.2869 119.58 27.2496C119.58 27.2122 119.561 27.1561 119.523 27.0814C119.486 27.044 119.467 27.0066 119.467 26.9692C119.467 26.9319 119.448 26.8945 119.411 26.8571C119.336 26.7076 119.298 26.6329 119.298 26.6329C119.261 26.5955 119.242 26.5768 119.242 26.5768C119.242 26.5394 119.223 26.502 119.186 26.4647C119.148 26.4273 119.13 26.3899 119.13 26.3525L119.017 26.2404C119.017 26.2404 119.036 26.2778 119.073 26.3525V26.4647C119.111 26.502 119.13 26.5768 119.13 26.6889C119.13 26.7263 119.13 26.7637 119.13 26.8011C119.167 26.8011 119.186 26.8384 119.186 26.9132C119.186 27.0253 119.205 27.1187 119.242 27.1935V27.4738C119.242 27.5486 119.242 27.6046 119.242 27.642C119.28 27.6794 119.298 27.7354 119.298 27.8102C119.298 28.1466 119.317 28.4082 119.355 28.5951V29.4921C119.392 29.679 119.411 29.978 119.411 30.3891V32.5195ZM117.105 29.6042C117.105 29.1183 117.086 28.5203 117.048 27.8102C117.011 27.1001 116.88 26.4273 116.654 25.7919C116.429 25.1565 116.073 24.6146 115.586 24.1661C115.136 23.6802 114.461 23.4373 113.561 23.4373H111.535C111.123 23.4746 110.767 23.6428 110.467 23.9418C110.167 24.2408 110.017 24.5959 110.017 25.007V37.6213C110.017 38.0324 110.167 38.3875 110.467 38.6865C110.767 38.9855 111.123 39.135 111.535 39.135H113.561C114.461 39.135 115.136 38.9107 115.586 38.4622C116.073 38.0137 116.429 37.4718 116.654 36.8364C116.88 36.1636 117.011 35.4909 117.048 34.8181C117.086 34.108 117.105 33.51 117.105 33.0241V29.6042ZM117.105 11.2715C117.105 10.7856 117.086 10.1876 117.048 9.47749C117.011 8.76736 116.88 8.0946 116.654 7.45921C116.429 6.82383 116.073 6.28188 115.586 5.83338C115.136 5.3475 114.461 5.10455 113.561 5.10455H111.535C111.123 5.14193 110.767 5.31012 110.467 5.60912C110.167 5.90813 110.017 6.2632 110.017 6.67433V19.2886C110.017 19.6997 110.167 20.0548 110.467 20.3538C110.767 20.6528 111.123 20.8023 111.535 20.8023H113.561C114.461 20.8023 115.136 20.578 115.586 20.1295C116.073 19.681 116.429 19.1391 116.654 18.5037C116.88 17.8309 117.011 17.1582 117.048 16.4854C117.086 15.7753 117.105 15.1773 117.105 14.6914V11.2715ZM119.523 16.8218C119.561 16.747 119.58 16.7097 119.58 16.7097C119.58 16.6723 119.598 16.6162 119.636 16.5415C119.673 16.4667 119.692 16.4107 119.692 16.3733C119.692 16.2985 119.711 16.2238 119.748 16.149C119.786 16.0743 119.805 16.0182 119.805 15.9808C119.805 15.9435 119.823 15.8874 119.861 15.8126C119.861 15.7379 119.861 15.6818 119.861 15.6445C119.898 15.5697 119.917 15.495 119.917 15.4202C119.955 15.2707 119.973 15.1212 119.973 14.9717C120.011 14.8222 120.048 14.6727 120.086 14.5232C120.123 14.4111 120.142 14.2429 120.142 14.0186C120.142 13.9439 120.142 13.8691 120.142 13.7944C120.18 13.7196 120.198 13.6449 120.198 13.5701V11.6079C120.198 11.3836 120.18 11.2155 120.142 11.1033V10.8791C120.142 10.8043 120.123 10.7669 120.086 10.7669C120.086 10.7296 120.086 10.6735 120.086 10.5988C120.086 10.4119 120.048 10.1316 119.973 9.75781C119.936 9.68306 119.917 9.60831 119.917 9.53355C119.917 9.4588 119.898 9.38405 119.861 9.3093C119.861 9.27193 119.842 9.25324 119.805 9.25324C119.805 9.21586 119.805 9.17849 119.805 9.14111C119.805 9.10374 119.786 9.08505 119.748 9.08505C119.748 9.04767 119.748 9.0103 119.748 8.97292C119.711 8.89817 119.692 8.84211 119.692 8.80473C119.692 8.76735 119.673 8.71129 119.636 8.63654C119.598 8.56179 119.58 8.50573 119.58 8.46835C119.58 8.43098 119.561 8.37491 119.523 8.30016C119.486 8.26279 119.467 8.22541 119.467 8.18804C119.467 8.15066 119.448 8.11329 119.411 8.07591C119.336 7.92641 119.298 7.85166 119.298 7.85166C119.261 7.81428 119.242 7.79559 119.242 7.79559C119.242 7.75822 119.223 7.72084 119.186 7.68347C119.148 7.64609 119.13 7.60872 119.13 7.57134C119.092 7.53396 119.073 7.49659 119.073 7.45921H119.017C119.017 7.45921 119.036 7.49659 119.073 7.57134V7.68347C119.111 7.72084 119.13 7.79559 119.13 7.90772C119.13 7.94509 119.13 7.98247 119.13 8.01984C119.167 8.01984 119.186 8.05722 119.186 8.13197C119.186 8.2441 119.205 8.33754 119.242 8.41229V8.69261C119.242 8.76736 119.242 8.82342 119.242 8.8608C119.28 8.89817 119.298 8.95423 119.298 9.02898C119.298 9.36536 119.317 9.62699 119.355 9.81387V10.7109C119.392 10.8978 119.411 11.1968 119.411 11.6079V13.7383C119.373 13.8131 119.355 13.9065 119.355 14.0186V15.3081C119.317 15.4576 119.298 15.6071 119.298 15.7566C119.298 15.8687 119.298 15.9808 119.298 16.093C119.298 16.1677 119.28 16.2238 119.242 16.2612C119.242 16.2985 119.242 16.3546 119.242 16.4293V16.7657C119.205 16.8405 119.186 16.9339 119.186 17.046C119.186 17.1208 119.167 17.1955 119.13 17.2703C119.13 17.345 119.111 17.4011 119.073 17.4385V17.5506L119.017 17.6627C119.017 17.6627 119.055 17.644 119.13 17.6067V17.5506L119.186 17.4945C119.223 17.4572 119.242 17.4385 119.242 17.4385C119.242 17.4011 119.261 17.3637 119.298 17.3264C119.336 17.2516 119.373 17.1769 119.411 17.1021C119.448 16.99 119.486 16.8965 119.523 16.8218Z" fill="#F4EDE8"/>
<path d="M141.509 38.3501C141.509 39.0229 141.566 39.5274 141.678 39.8638C141.828 40.1628 141.978 40.4057 142.128 40.5926C142.278 40.7421 142.409 40.8916 142.522 41.0411C142.672 41.1906 142.747 41.4336 142.747 41.77H127.446C127.221 41.77 127.015 41.6765 126.827 41.4896C126.64 41.3028 126.546 41.0972 126.546 40.8729C126.546 41.0972 126.452 41.3028 126.265 41.4896C126.115 41.6765 125.909 41.77 125.646 41.77H122.721C122.721 41.4336 122.777 41.1906 122.89 41.0411C123.04 40.8916 123.19 40.7421 123.34 40.5926C123.49 40.4057 123.621 40.1628 123.734 39.8638C123.884 39.5648 123.959 39.0976 123.959 38.4622V24.7828C123.846 23.6241 123.321 22.7832 122.383 22.2599C122.796 21.9983 123.321 21.8675 123.959 21.8675V5.83338C123.959 5.19799 123.884 4.7308 123.734 4.4318C123.621 4.13279 123.49 3.90854 123.34 3.75904C123.19 3.57216 123.04 3.40397 122.89 3.25447C122.777 3.10496 122.721 2.86202 122.721 2.52564H125.702C125.927 2.52564 126.134 2.61908 126.321 2.80596C126.509 2.95546 126.602 3.16103 126.602 3.42266C126.602 2.82465 126.902 2.52564 127.502 2.52564H142.747C142.747 2.86202 142.672 3.10496 142.522 3.25447C142.409 3.40397 142.278 3.57216 142.128 3.75904C141.978 3.90854 141.828 4.15148 141.678 4.48786C141.566 4.78686 141.509 5.27274 141.509 5.9455V13.4019C140.197 13.4019 139.184 13.159 138.472 12.6731C137.797 12.1498 137.29 11.5705 136.953 10.9351C136.54 10.225 136.315 9.38405 136.278 8.41229V6.67433C136.278 6.2632 136.128 5.90813 135.828 5.60912C135.528 5.31012 135.172 5.14193 134.759 5.10455H130.709C130.296 5.14193 129.94 5.31012 129.64 5.60912C129.34 5.90813 129.19 6.2632 129.19 6.67433V19.2886C129.19 19.6997 129.34 20.0548 129.64 20.3538C129.94 20.6528 130.296 20.8023 130.709 20.8023H131.103C131.515 20.8023 131.853 20.6528 132.115 20.3538C132.415 20.0548 132.565 19.6997 132.565 19.2886V19.2325C132.603 18.6719 132.753 18.186 133.015 17.7749C133.24 17.4011 133.578 17.0647 134.028 16.7657C134.478 16.4667 135.134 16.3172 135.997 16.3172V27.9223C135.134 27.9223 134.478 27.7728 134.028 27.4738C133.578 27.1748 133.24 26.8384 133.015 26.4647C132.753 26.0535 132.603 25.5677 132.565 25.007C132.565 24.5959 132.415 24.2408 132.115 23.9418C131.853 23.6428 131.515 23.4746 131.103 23.4373H130.709C130.296 23.4746 129.94 23.6428 129.64 23.9418C129.34 24.2408 129.19 24.5959 129.19 25.007V37.6213C129.19 38.0324 129.34 38.3875 129.64 38.6865C129.94 38.9855 130.296 39.135 130.709 39.135H134.759C135.172 39.135 135.528 38.9855 135.828 38.6865C136.128 38.3875 136.278 38.0324 136.278 37.6213V35.8272C136.315 34.8929 136.54 34.0706 136.953 33.3605C137.29 32.7251 137.797 32.1458 138.472 31.6225C139.184 31.0992 140.197 30.8376 141.509 30.8376V38.3501ZM126.996 19.5128C126.996 19.3259 126.977 19.1204 126.94 18.8961C126.94 18.6719 126.94 18.4476 126.94 18.2234V16.99C126.902 16.1677 126.884 15.3828 126.884 14.6353C126.884 13.8878 126.865 13.1777 126.827 12.5049C126.79 12.2059 126.771 11.9069 126.771 11.6079C126.771 11.3089 126.752 11.0286 126.715 10.7669C126.715 10.4679 126.696 10.2063 126.659 9.98206C126.659 9.75781 126.659 9.55224 126.659 9.36537C126.659 9.17849 126.64 9.0103 126.602 8.8608C126.602 8.71129 126.602 8.58048 126.602 8.46835V8.18804C126.565 8.18804 126.546 8.20672 126.546 8.2441V8.46835C126.546 8.58048 126.527 8.71129 126.49 8.8608C126.49 9.0103 126.49 9.17849 126.49 9.36537C126.49 9.55224 126.471 9.75781 126.434 9.98206C126.434 10.2063 126.434 10.4679 126.434 10.7669C126.396 11.0286 126.377 11.3089 126.377 11.6079C126.377 11.9069 126.359 12.2059 126.321 12.5049C126.284 13.1777 126.265 13.8878 126.265 14.6353C126.265 15.3828 126.246 16.1677 126.209 16.99V18.2234C126.209 18.4476 126.19 18.6719 126.152 18.8961C126.152 19.1204 126.152 19.3259 126.152 19.5128V24.7267C126.152 25.0257 126.171 25.25 126.209 25.3995V27.2496C126.209 27.6607 126.209 28.0718 126.209 28.483C126.246 28.8567 126.265 29.2305 126.265 29.6042C126.265 30.0153 126.265 30.3891 126.265 30.7255C126.302 31.0619 126.321 31.3982 126.321 31.7346C126.359 32.071 126.377 32.3887 126.377 32.6877C126.377 32.9493 126.396 33.2296 126.434 33.5286C126.434 33.7903 126.434 34.0332 126.434 34.2575C126.471 34.4817 126.49 34.6873 126.49 34.8742C126.49 35.061 126.49 35.2479 126.49 35.4348C126.527 35.5843 126.546 35.6964 126.546 35.7712V36.0515C126.546 36.0889 126.565 36.1076 126.602 36.1076V35.7712C126.602 35.6964 126.602 35.5843 126.602 35.4348C126.64 35.2479 126.659 35.061 126.659 34.8742C126.659 34.6873 126.659 34.4817 126.659 34.2575C126.696 34.0332 126.715 33.7903 126.715 33.5286C126.752 33.2296 126.771 32.9493 126.771 32.6877C126.771 32.3887 126.79 32.071 126.827 31.7346C126.827 31.3982 126.827 31.0619 126.827 30.7255C126.865 30.3891 126.884 30.0153 126.884 29.6042C126.884 29.2305 126.884 28.8567 126.884 28.483C126.921 28.0718 126.94 27.6607 126.94 27.2496V26.0162C126.94 25.7172 126.959 25.5116 126.996 25.3995V19.5128Z" fill="#F4EDE8"/>
<path d="M164.139 44.1246C164.551 44.1994 164.833 44.3302 164.983 44.5171C165.17 44.7039 165.301 44.8908 165.376 45.0777C165.451 45.3019 165.489 45.5449 165.489 45.8065C164.289 45.8065 163.164 45.657 162.114 45.358C161.064 45.059 160.126 44.5731 159.301 43.9004C158.514 43.2276 157.876 42.3493 157.388 41.2654C156.938 40.1815 156.713 38.8547 156.713 37.2849V29.6042C156.713 29.1183 156.695 28.5203 156.657 27.8102C156.62 27.1001 156.488 26.4273 156.263 25.7919C156.038 25.1565 155.682 24.6146 155.195 24.1661C154.745 23.6802 154.07 23.4373 153.17 23.4373H150.863C150.526 23.512 150.226 23.6989 149.963 23.9979C149.738 24.2595 149.626 24.5772 149.626 24.951V38.3501C149.626 39.0229 149.682 39.5274 149.794 39.8638C149.944 40.1628 150.094 40.4057 150.244 40.5926C150.394 40.7421 150.526 40.8916 150.638 41.0411C150.788 41.1906 150.863 41.4336 150.863 41.77H147.882C147.657 41.77 147.45 41.6765 147.263 41.4896C147.075 41.3028 146.982 41.0972 146.982 40.8729C146.982 41.0972 146.888 41.3028 146.7 41.4896C146.55 41.6765 146.344 41.77 146.082 41.77H143.157C143.157 41.4336 143.213 41.1906 143.325 41.0411C143.475 40.8916 143.625 40.7421 143.775 40.5926C143.925 40.4057 144.057 40.1628 144.169 39.8638C144.319 39.5648 144.394 39.0976 144.394 38.4622V24.7828C144.282 23.6241 143.757 22.7832 142.819 22.2599C143.232 21.9983 143.757 21.8675 144.394 21.8675V5.83338C144.394 5.19799 144.319 4.7308 144.169 4.4318C144.057 4.13279 143.925 3.90854 143.775 3.75904C143.625 3.57216 143.475 3.40397 143.325 3.25447C143.213 3.10496 143.157 2.86202 143.157 2.52564H146.138C146.363 2.52564 146.569 2.61908 146.757 2.80596C146.944 2.95546 147.038 3.16103 147.038 3.42266C147.038 2.82465 147.338 2.52564 147.938 2.52564H153.226C154.426 2.52564 155.551 2.7499 156.601 3.1984C157.651 3.64691 158.57 4.2636 159.357 5.04849C160.145 5.796 160.764 6.69301 161.214 7.73953C161.664 8.78604 161.907 9.88862 161.945 11.0473V14.6914C161.945 16.2612 161.57 17.7001 160.82 19.0083C160.07 20.3164 159.057 21.3629 157.782 22.1478C159.057 22.8953 160.07 23.9418 160.82 25.2873C161.57 26.5955 161.945 28.0344 161.945 29.6042V37.0606C161.945 37.8455 161.945 38.6491 161.945 39.4714C161.982 40.2562 162.076 40.9851 162.226 41.6578C162.376 42.2932 162.601 42.8352 162.901 43.2837C163.201 43.7322 163.614 44.0125 164.139 44.1246ZM159.02 13.7383C158.982 13.8131 158.964 13.9065 158.964 14.0186V15.3081C158.926 15.4576 158.907 15.6071 158.907 15.7566C158.907 15.8687 158.907 15.9808 158.907 16.093C158.907 16.1677 158.889 16.2238 158.851 16.2612C158.851 16.2985 158.851 16.3546 158.851 16.4293V16.7657C158.814 16.8405 158.795 16.9339 158.795 17.046C158.795 17.1208 158.776 17.1955 158.739 17.2703C158.739 17.345 158.72 17.4011 158.682 17.4385V17.5506L158.626 17.6627C158.626 17.6627 158.664 17.644 158.739 17.6067V17.5506L158.795 17.4945C158.832 17.4572 158.851 17.4385 158.851 17.4385C158.851 17.4011 158.87 17.3637 158.907 17.3264C158.945 17.2516 158.982 17.1769 159.02 17.1021C159.057 16.99 159.095 16.8965 159.132 16.8218C159.17 16.747 159.189 16.7097 159.189 16.7097C159.189 16.6723 159.207 16.6162 159.245 16.5415C159.282 16.4667 159.301 16.4107 159.301 16.3733C159.301 16.2985 159.32 16.2238 159.357 16.149C159.395 16.0743 159.414 16.0182 159.414 15.9808C159.414 15.9435 159.432 15.8874 159.47 15.8126C159.47 15.7379 159.47 15.6818 159.47 15.6445C159.507 15.5697 159.526 15.495 159.526 15.4202C159.564 15.2707 159.582 15.1212 159.582 14.9717C159.62 14.8222 159.657 14.6727 159.695 14.5232C159.732 14.4111 159.751 14.2429 159.751 14.0186C159.751 13.9439 159.751 13.8691 159.751 13.7944C159.789 13.7196 159.807 13.6449 159.807 13.5701V11.6079C159.807 11.3836 159.789 11.2155 159.751 11.1033V10.8791C159.751 10.8043 159.732 10.7669 159.695 10.7669C159.695 10.7296 159.695 10.6735 159.695 10.5988C159.695 10.4119 159.657 10.1316 159.582 9.75781C159.545 9.68306 159.526 9.60831 159.526 9.53355C159.526 9.4588 159.507 9.38405 159.47 9.3093C159.47 9.27193 159.451 9.25324 159.414 9.25324C159.414 9.21586 159.414 9.17849 159.414 9.14111C159.414 9.10374 159.395 9.08505 159.357 9.08505C159.357 9.04767 159.357 9.0103 159.357 8.97292C159.32 8.89817 159.301 8.84211 159.301 8.80473C159.301 8.76735 159.282 8.71129 159.245 8.63654C159.207 8.56179 159.189 8.50573 159.189 8.46835C159.189 8.43098 159.17 8.37491 159.132 8.30016C159.095 8.26279 159.076 8.22541 159.076 8.18804C159.076 8.15066 159.057 8.11329 159.02 8.07591C158.945 7.92641 158.907 7.85166 158.907 7.85166C158.87 7.81428 158.851 7.79559 158.851 7.79559C158.851 7.75822 158.832 7.72084 158.795 7.68347C158.757 7.64609 158.739 7.60872 158.739 7.57134C158.701 7.53396 158.682 7.49659 158.682 7.45921H158.626C158.626 7.45921 158.645 7.49659 158.682 7.57134V7.68347C158.72 7.72084 158.739 7.79559 158.739 7.90772C158.739 7.94509 158.739 7.98247 158.739 8.01984C158.776 8.01984 158.795 8.05722 158.795 8.13197C158.795 8.2441 158.814 8.33754 158.851 8.41229V8.69261C158.851 8.76736 158.851 8.82342 158.851 8.8608C158.889 8.89817 158.907 8.95423 158.907 9.02898C158.907 9.36536 158.926 9.62699 158.964 9.81387V10.7109C159.001 10.8978 159.02 11.1968 159.02 11.6079V13.7383ZM147.432 19.5128C147.432 19.3259 147.413 19.1204 147.375 18.8961C147.375 18.6719 147.375 18.4476 147.375 18.2234V16.99C147.338 16.1677 147.319 15.3828 147.319 14.6353C147.319 13.8878 147.3 13.1777 147.263 12.5049C147.225 12.2059 147.207 11.9069 147.207 11.6079C147.207 11.3089 147.188 11.0286 147.15 10.7669C147.15 10.4679 147.132 10.2063 147.094 9.98206C147.094 9.75781 147.094 9.55224 147.094 9.36537C147.094 9.17849 147.075 9.0103 147.038 8.8608C147.038 8.71129 147.038 8.58048 147.038 8.46835V8.18804C147 8.18804 146.982 8.20672 146.982 8.2441V8.46835C146.982 8.58048 146.963 8.71129 146.925 8.8608C146.925 9.0103 146.925 9.17849 146.925 9.36537C146.925 9.55224 146.907 9.75781 146.869 9.98206C146.869 10.2063 146.869 10.4679 146.869 10.7669C146.832 11.0286 146.813 11.3089 146.813 11.6079C146.813 11.9069 146.794 12.2059 146.757 12.5049C146.719 13.1777 146.7 13.8878 146.7 14.6353C146.7 15.3828 146.682 16.1677 146.644 16.99V18.2234C146.644 18.4476 146.625 18.6719 146.588 18.8961C146.588 19.1204 146.588 19.3259 146.588 19.5128V24.7267C146.588 25.0257 146.607 25.25 146.644 25.3995V27.2496C146.644 27.6607 146.644 28.0718 146.644 28.483C146.682 28.8567 146.7 29.2305 146.7 29.6042C146.7 30.0153 146.7 30.3891 146.7 30.7255C146.738 31.0619 146.757 31.3982 146.757 31.7346C146.794 32.071 146.813 32.3887 146.813 32.6877C146.813 32.9493 146.832 33.2296 146.869 33.5286C146.869 33.7903 146.869 34.0332 146.869 34.2575C146.907 34.4817 146.925 34.6873 146.925 34.8742C146.925 35.061 146.925 35.2479 146.925 35.4348C146.963 35.5843 146.982 35.6964 146.982 35.7712V36.0515C146.982 36.0889 147 36.1076 147.038 36.1076V35.7712C147.038 35.6964 147.038 35.5843 147.038 35.4348C147.075 35.2479 147.094 35.061 147.094 34.8742C147.094 34.6873 147.094 34.4817 147.094 34.2575C147.132 34.0332 147.15 33.7903 147.15 33.5286C147.188 33.2296 147.207 32.9493 147.207 32.6877C147.207 32.3887 147.225 32.071 147.263 31.7346C147.263 31.3982 147.263 31.0619 147.263 30.7255C147.3 30.3891 147.319 30.0153 147.319 29.6042C147.319 29.2305 147.319 28.8567 147.319 28.483C147.357 28.0718 147.375 27.6607 147.375 27.2496V26.0162C147.375 25.7172 147.394 25.5116 147.432 25.3995V19.5128ZM156.713 11.2715C156.713 10.7856 156.695 10.1876 156.657 9.47749C156.62 8.76736 156.488 8.0946 156.263 7.45921C156.038 6.82383 155.682 6.28188 155.195 5.83338C154.745 5.3475 154.07 5.10455 153.17 5.10455H151.144C150.732 5.14193 150.376 5.31012 150.076 5.60912C149.776 5.90813 149.626 6.2632 149.626 6.67433V19.2886C149.626 19.6997 149.776 20.0548 150.076 20.3538C150.376 20.6528 150.732 20.8023 151.144 20.8023H153.17C154.07 20.8023 154.745 20.578 155.195 20.1295C155.682 19.681 156.038 19.1391 156.263 18.5037C156.488 17.8309 156.62 17.1582 156.657 16.4854C156.695 15.7753 156.713 15.1773 156.713 14.6914V11.2715ZM160.482 41.9942C160.482 41.9942 160.464 41.9755 160.426 41.9381L160.37 41.8821C160.332 41.8073 160.295 41.7326 160.257 41.6578C160.257 41.5831 160.22 41.5083 160.145 41.4336C160.107 41.3214 160.07 41.2093 160.032 41.0972C159.995 40.9477 159.957 40.7795 159.92 40.5926C159.845 40.2189 159.807 39.8638 159.807 39.5274C159.77 39.3405 159.751 39.1537 159.751 38.9668C159.751 38.7425 159.751 38.4996 159.751 38.238V35.2666C159.751 35.005 159.751 34.7434 159.751 34.4817C159.751 34.2201 159.77 33.9398 159.807 33.6408C159.807 33.3791 159.807 33.1175 159.807 32.8559C159.807 32.5943 159.789 32.3326 159.751 32.071V31.2861C159.751 30.9124 159.732 30.6507 159.695 30.5012C159.695 30.2396 159.676 29.9967 159.639 29.7724C159.639 29.5108 159.62 29.2678 159.582 29.0436C159.507 28.5203 159.432 28.0718 159.357 27.6981C159.32 27.5112 159.282 27.343 159.245 27.1935C159.207 27.0066 159.151 26.8197 159.076 26.6329C159.001 26.446 158.945 26.2965 158.907 26.1844C158.87 26.0722 158.814 25.9601 158.739 25.848C158.664 25.7358 158.607 25.6424 158.57 25.5677C158.532 25.4929 158.495 25.4182 158.457 25.3434C158.42 25.3434 158.382 25.3247 158.345 25.2873C158.307 25.2873 158.289 25.2687 158.289 25.2313L158.345 25.2873C158.345 25.3247 158.364 25.3621 158.401 25.3995C158.401 25.4368 158.401 25.4742 158.401 25.5116C158.439 25.5116 158.457 25.549 158.457 25.6237C158.495 25.6611 158.514 25.6985 158.514 25.7358C158.514 25.7732 158.532 25.8293 158.57 25.904C158.607 26.0535 158.664 26.3152 158.739 26.6889C158.776 26.8758 158.795 27.0627 158.795 27.2496C158.832 27.4364 158.87 27.6233 158.907 27.8102C158.907 27.9971 158.907 28.2026 158.907 28.4269C158.945 28.6138 158.964 28.838 158.964 29.0996V36.0515C158.964 36.201 158.964 36.3318 158.964 36.4439C159.001 36.5561 159.02 36.6869 159.02 36.8364C159.02 37.098 159.02 37.3596 159.02 37.6213C159.057 37.8455 159.095 38.0698 159.132 38.294C159.17 38.5183 159.189 38.7425 159.189 38.9668C159.226 39.191 159.264 39.3966 159.301 39.5835C159.376 39.8077 159.432 40.0133 159.47 40.2002C159.507 40.3497 159.564 40.5179 159.639 40.7048C159.714 40.8916 159.77 41.0411 159.807 41.1533C159.845 41.2654 159.901 41.3775 159.976 41.4896L160.089 41.6018C160.126 41.6391 160.145 41.6765 160.145 41.7139C160.145 41.7139 160.164 41.7326 160.201 41.77L160.426 41.9942H160.482Z" fill="#F4EDE8"/>
</svg>
